<svg width="1056" height="451" viewBox="0 0 1056 451" fill="none" xmlns="http://www.w3.org/2000/svg">
<g clip-path="url(#clip0_61_511)">
<rect width="1056" height="451" rx="12" fill="black" fill-opacity="0.3"/>
<path d="M2.77796 0L-14.5334 47.9056H-20.9476L-3.60053 0H2.77796Z" fill="#EF6B11"/>
<path d="M14.8041 62.2566L-2.50726 110.162H-8.92151L8.42559 62.2566H14.8041Z" fill="#F4FFB0"/>
<path d="M77.6073 0L60.296 47.9056H53.8817L71.2288 0H77.6073Z" fill="#EF6B11"/>
<path d="M97.6509 62.2566L80.3396 110.162H73.9253L91.2724 62.2566H97.6509Z" fill="#EF6B11"/>
<path d="M56.2275 109.572L38.9162 157.477H32.502L49.8491 109.572H56.2275Z" fill="#EF6B11"/>
<path d="M949.726 371.795L932.414 419.701H926L943.347 371.795H949.726Z" fill="#F4FFB0"/>
<path d="M973.778 371.795L956.467 419.701H950.052L967.399 371.795H973.778Z" fill="#EF6B11"/>
<path d="M985.804 434.052L968.493 481.958H962.078L979.425 434.052H985.804Z" fill="#F4FFB0"/>
<path d="M1048.61 371.795L1031.3 419.701H1024.88L1042.23 371.795H1048.61Z" fill="#EF6B11"/>
<path d="M1068.65 434.052L1051.34 481.958H1044.93L1062.27 434.052H1068.65Z" fill="#EF6B11"/>
</g>
<defs>
<clipPath id="clip0_61_511">
<rect width="1056" height="451" rx="12" fill="white"/>
</clipPath>
</defs>
</svg>
