<svg width="198" height="121" viewBox="0 0 198 121" fill="none" xmlns="http://www.w3.org/2000/svg">
<g clip-path="url(#clip0_25_95)">
<path d="M197.88 0L0 19.57V120.9L197.88 101.33V0Z" fill="#EF6B11"/>
<path d="M48.77 33.22L40.36 58.07H37.25L45.67 33.22H48.77Z" fill="white"/>
<path d="M50.55 40.26H55.89V58.45H59.7001V40.26H65.06V37.22H50.55V40.26Z" fill="white"/>
<path d="M76.93 42.39C75.66 42.39 74.53 42.66 73.54 43.2C72.85 43.58 72.27 44.07 71.79 44.65V37.32H67.99V58.45H71.79V49.44C71.79 48.71 71.94 48.06 72.24 47.5C72.54 46.94 72.97 46.5 73.53 46.19C74.09 45.88 74.78 45.72 75.58 45.72C76.78 45.72 77.62 46.06 78.12 46.74C78.62 47.42 78.87 48.4 78.87 49.67V58.45H82.67V48.65C82.67 46.68 82.18 45.15 81.19 44.04C80.21 42.94 78.78 42.38 76.92 42.38L76.93 42.39Z" fill="white"/>
<path d="M90.04 42.65H86.28V58.45H90.04V42.65Z" fill="white"/>
<path d="M89.77 36.54C89.32 36.21 88.79 36.05 88.18 36.05C87.57 36.05 87.02 36.21 86.57 36.54C86.11 36.87 85.88 37.33 85.88 37.91C85.88 38.49 86.11 38.97 86.57 39.31C87.03 39.64 87.57 39.81 88.18 39.81C88.79 39.81 89.32 39.64 89.77 39.31C90.22 38.98 90.45 38.51 90.45 37.91C90.45 37.31 90.22 36.86 89.77 36.54Z" fill="white"/>
<path d="M101.99 42.39C101.2 42.39 100.49 42.52 99.8801 42.77C99.2701 43.02 98.7401 43.37 98.3001 43.82C98.0301 44.1 97.8101 44.41 97.6101 44.75V42.66H93.8101V58.46H97.6101V50.39C97.6101 49.86 97.6801 49.33 97.8101 48.79C97.9401 48.25 98.1701 47.76 98.4801 47.31C98.7901 46.86 99.2101 46.5 99.7301 46.24C100.26 45.97 100.91 45.84 101.69 45.84C102.18 45.84 102.57 45.89 102.87 45.99C103.16 46.09 103.36 46.18 103.46 46.24L104.15 42.75C104.06 42.69 103.84 42.62 103.48 42.53C103.12 42.44 102.62 42.39 102 42.39H101.99Z" fill="white"/>
<path d="M116.9 37.32V44.48C116.46 44.01 115.96 43.61 115.4 43.28C114.38 42.69 113.26 42.39 112.06 42.39C110.86 42.39 109.67 42.69 108.6 43.3C107.53 43.91 106.66 44.8 106 45.98C105.34 47.16 105.01 48.59 105.01 50.29C105.01 51.99 105.33 53.51 105.98 54.7C106.63 55.89 107.49 56.8 108.56 57.41C109.64 58.02 110.8 58.33 112.07 58.33C113.34 58.33 114.46 58.01 115.47 57.38C116.01 57.04 116.49 56.63 116.92 56.15V58.45H120.74V37.32H116.92H116.9ZM116.35 53.07C115.98 53.66 115.49 54.13 114.9 54.47C114.3 54.81 113.65 54.98 112.95 54.98C111.84 54.98 110.9 54.6 110.11 53.84C109.33 53.08 108.94 51.9 108.94 50.3C108.94 48.7 109.33 47.51 110.11 46.76C110.89 46.01 111.84 45.64 112.95 45.64C113.63 45.64 114.26 45.8 114.87 46.12C115.47 46.44 115.96 46.89 116.35 47.46C116.73 48.03 116.92 48.69 116.92 49.46V51.04C116.92 51.81 116.73 52.49 116.36 53.09L116.35 53.07Z" fill="white"/>
<path d="M136.44 33.22L128.03 58.07H124.92L133.34 33.22H136.44Z" fill="white"/>
<path d="M170.21 59.15L161.8 84H158.69L167.11 59.15H170.21Z" fill="white"/>
<path d="M68.33 73.33C67.59 72.99 66.86 72.81 66.12 72.79C66.81 72.74 67.49 72.52 68.15 72.12C68.81 71.72 69.35 71.16 69.78 70.42C70.21 69.68 70.42 68.78 70.42 67.72C70.42 66.66 70.18 65.69 69.7 64.93C69.22 64.17 68.51 63.59 67.57 63.19C66.62 62.79 65.44 62.59 64.01 62.59H56.02V83.93H63.93C65.58 83.93 66.92 83.68 67.94 83.18C68.96 82.68 69.72 81.98 70.19 81.08C70.66 80.18 70.9 79.13 70.9 77.95C70.9 76.7 70.65 75.7 70.16 74.95C69.67 74.21 69.05 73.67 68.32 73.33H68.33ZM64.98 65.92C65.52 66.11 65.92 66.4 66.2 66.8C66.48 67.2 66.61 67.72 66.61 68.36C66.61 69.31 66.28 70.06 65.62 70.59C64.96 71.13 63.99 71.39 62.72 71.39H59.68V65.63H63.05C63.8 65.63 64.45 65.72 64.98 65.91V65.92ZM66.04 80.06C65.37 80.62 64.42 80.9 63.19 80.9H59.67V74.42H62.92C63.51 74.42 64.05 74.48 64.55 74.61C65.05 74.74 65.48 74.93 65.85 75.2C66.22 75.47 66.51 75.81 66.72 76.23C66.93 76.65 67.03 77.15 67.03 77.73C67.03 78.73 66.7 79.51 66.03 80.07L66.04 80.06Z" fill="white"/>
<path d="M82.4901 68.31C81.7001 68.31 80.9901 68.44 80.3801 68.69C79.7701 68.94 79.2401 69.29 78.8001 69.74C78.5301 70.02 78.3101 70.33 78.1101 70.67V68.58H74.3101V83.94H78.1101V76.3C78.1101 75.77 78.1801 75.24 78.3101 74.7C78.4401 74.16 78.6701 73.67 78.9801 73.22C79.2901 72.77 79.7101 72.41 80.2301 72.15C80.7601 71.88 81.4101 71.75 82.1901 71.75C82.6801 71.75 83.0701 71.8 83.3701 71.9C83.6601 72 83.8601 72.09 83.9601 72.15L84.6501 68.66C84.5601 68.6 84.3401 68.53 83.9801 68.44C83.6201 68.35 83.1201 68.3 82.5001 68.3L82.4901 68.31Z" fill="white"/>
<path d="M100.8 82.72C100.72 82.44 100.67 82.12 100.65 81.77C100.63 81.42 100.61 81.06 100.61 80.69V73.69C100.61 72.49 100.28 71.5 99.61 70.7C98.94 69.9 98.06 69.3 96.96 68.91C95.86 68.51 94.65 68.32 93.33 68.32C91.91 68.32 90.64 68.54 89.53 68.97C88.41 69.4 87.53 70.04 86.89 70.87C86.25 71.7 85.93 72.72 85.93 73.93H89.69C89.69 73.04 90 72.39 90.62 71.98C91.24 71.57 92.14 71.37 93.3 71.37C94.46 71.37 95.27 71.55 95.88 71.92C96.49 72.29 96.79 72.81 96.79 73.48V73.51C96.79 73.87 96.44 74.12 95.74 74.28C95.04 74.44 93.81 74.61 92.06 74.78C90.87 74.89 89.79 75.13 88.82 75.5C87.85 75.87 87.07 76.4 86.5 77.08C85.93 77.76 85.64 78.63 85.64 79.68C85.64 80.64 85.89 81.47 86.38 82.15C86.87 82.83 87.55 83.36 88.42 83.72C89.29 84.08 90.3 84.26 91.44 84.26C92.4 84.26 93.3 84.14 94.12 83.9C94.94 83.66 95.65 83.32 96.24 82.88C96.51 82.68 96.74 82.47 96.94 82.24C96.98 82.45 97.03 82.66 97.1 82.86C97.2 83.12 97.3 83.35 97.43 83.55C97.56 83.75 97.64 83.88 97.71 83.95H101.47C101.39 83.87 101.29 83.73 101.15 83.52C101.01 83.31 100.9 83.05 100.8 82.74V82.72ZM96.2 79.6C95.79 80.16 95.24 80.58 94.57 80.85C93.89 81.12 93.16 81.26 92.37 81.26C91.4 81.26 90.67 81.1 90.19 80.78C89.71 80.46 89.47 79.98 89.47 79.35C89.47 78.72 89.76 78.22 90.33 77.93C90.9 77.64 91.76 77.44 92.9 77.34C93.79 77.25 94.67 77.14 95.53 76.99C96 76.91 96.43 76.81 96.83 76.71V77.43C96.83 78.32 96.62 79.04 96.21 79.61L96.2 79.6Z" fill="white"/>
<path d="M116.87 69.04C116.03 68.56 114.99 68.32 113.75 68.32C112.51 68.32 111.46 68.6 110.48 69.17C109.71 69.62 109.07 70.2 108.54 70.91V68.58H104.74V83.94H108.54V75.74C108.54 74.94 108.7 74.23 109.02 73.62C109.34 73.01 109.79 72.53 110.36 72.17C110.93 71.82 111.58 71.64 112.31 71.64C113.15 71.64 113.81 71.8 114.28 72.12C114.75 72.44 115.09 72.87 115.29 73.43C115.49 73.98 115.59 74.61 115.59 75.3V83.94H119.41V74.22C119.41 73.02 119.2 71.98 118.77 71.09C118.34 70.2 117.7 69.52 116.86 69.04H116.87Z" fill="white"/>
<path d="M136.27 70.27C135.63 69.68 134.84 69.2 133.9 68.84C132.96 68.48 131.89 68.3 130.67 68.3C129.05 68.3 127.62 68.62 126.37 69.26C125.13 69.9 124.15 70.82 123.45 72C122.75 73.19 122.39 74.58 122.39 76.2C122.39 77.82 122.74 79.23 123.45 80.44C124.15 81.65 125.13 82.58 126.37 83.25C127.61 83.92 129.05 84.25 130.67 84.25C131.9 84.25 132.99 84.07 133.93 83.71C134.87 83.35 135.66 82.88 136.3 82.28C136.94 81.68 137.42 81.02 137.75 80.3C138.08 79.58 138.24 78.87 138.24 78.15H134.45C134.41 78.68 134.25 79.17 133.97 79.62C133.69 80.07 133.28 80.43 132.73 80.69C132.19 80.96 131.48 81.09 130.63 81.09C129.82 81.09 129.08 80.9 128.42 80.52C127.76 80.14 127.24 79.58 126.85 78.86C126.46 78.13 126.27 77.25 126.27 76.21C126.27 75.17 126.47 74.28 126.86 73.58C127.25 72.88 127.78 72.35 128.44 72C129.1 71.65 129.83 71.47 130.63 71.47C131.38 71.47 132.02 71.59 132.55 71.83C133.08 72.07 133.51 72.39 133.82 72.79C134.14 73.19 134.34 73.64 134.41 74.13C134.41 74.19 134.43 74.25 134.44 74.3C134.44 74.36 134.45 74.41 134.45 74.46H138.23V74.34C138.23 73.64 138.06 72.93 137.72 72.22C137.38 71.51 136.89 70.86 136.25 70.27H136.27Z" fill="white"/>
<path d="M154.59 69.97C153.61 68.87 152.18 68.31 150.32 68.31C149.05 68.31 147.92 68.58 146.93 69.12C146.24 69.5 145.66 69.99 145.18 70.57V62.78H141.38V83.94H145.18V75.36C145.18 74.63 145.33 73.98 145.63 73.42C145.93 72.86 146.36 72.42 146.92 72.11C147.48 71.8 148.17 71.64 148.97 71.64C150.17 71.64 151.01 71.98 151.51 72.66C152.01 73.34 152.26 74.32 152.26 75.59V83.94H156.06V74.58C156.06 72.61 155.57 71.08 154.58 69.97H154.59Z" fill="white"/>
</g>
<defs>
<clipPath id="clip0_25_95">
<rect width="197.88" height="120.9" fill="white"/>
</clipPath>
</defs>
</svg>
